<svg xmlns="http://www.w3.org/2000/svg" xml:space="preserve" width="655.359" height="655.359" style="shape-rendering:geometricPrecision;text-rendering:geometricPrecision;image-rendering:optimizeQuality;fill-rule:evenodd;clip-rule:evenodd" viewBox="0 0 6.827 6.827"><defs><style>.fil1,.fil2{fill:#fffffe}.fil2{fill-rule:nonzero}</style></defs><g id="Layer_x0020_1"><rect width="6.827" height="6.827" rx=".853" ry=".853" style="fill:#ab47bc"/><g id="_426005912"><path id="_426005528" class="fil1" d="M1.24 3.01V1.74c.474-.093 1.127-.338 1.63-.395L1.24 3.009zm2.718-1.663c.5.06 1.152.3 1.629.394V3.01L3.958 1.347z"/><path id="_426005384" class="fil1" d="M5.587 3.598V5.92H3.015V4.25H2.003v1.672H1.24V3.598h4.347zm-1.775.651h1.012v1.014H3.812V4.249z"/><path id="_426005312" class="fil1" d="M5.973 3.518H.853L3.413.906l2.56 2.612zM2.907 2.055H3.92v1.013H2.907V2.055z"/><path id="_426005960" class="fil2" d="M5.516 1.727a.08.08 0 0 0-.033.156l.34-.09-.307-.066z"/><path id="_426005432" class="fil2" d="M1.31 1.727a.08.08 0 0 1 .033.156l-.34-.09.308-.066z"/></g></g></svg>